<?xml version="1.0" encoding="UTF-8"?>
<!DOCTYPE svg PUBLIC "-//W3C//DTD SVG 1.1//EN" "http://www.w3.org/Graphics/SVG/1.1/DTD/svg11.dtd">
<!-- Creator: CorelDRAW -->
<svg xmlns="http://www.w3.org/2000/svg" xml:space="preserve" width="3300px" height="2550px" version="1.1" style="shape-rendering:geometricPrecision; text-rendering:geometricPrecision; image-rendering:optimizeQuality; fill-rule:evenodd; clip-rule:evenodd"
viewBox="0 0 3300 2550"
 xmlns:xlink="http://www.w3.org/1999/xlink"
 xmlns:xodm="http://www.corel.com/coreldraw/odm/2003">
 <defs>
  <style type="text/css">
   <![CDATA[
    .fil0 {fill:url(#id0);fill-rule:nonzero}
    .fil2 {fill:url(#id1);fill-rule:nonzero}
    .fil4 {fill:url(#id2);fill-rule:nonzero}
    .fil7 {fill:url(#id3);fill-rule:nonzero}
    .fil1 {fill:url(#id4);fill-rule:nonzero}
    .fil6 {fill:url(#id5);fill-rule:nonzero}
    .fil5 {fill:url(#id6);fill-rule:nonzero}
    .fil3 {fill:url(#id7);fill-rule:nonzero}
   ]]>
  </style>
  <linearGradient id="id0" gradientUnits="userSpaceOnUse" x1="652.67" y1="1175.81" x2="951.57" y2="1411.54">
   <stop offset="0" style="stop-opacity:1; stop-color:#092445"/>
   <stop offset="0.321569" style="stop-opacity:1; stop-color:#1D4387"/>
   <stop offset="0.501961" style="stop-opacity:1; stop-color:#3262C9"/>
   <stop offset="0.631373" style="stop-opacity:1; stop-color:#214C98"/>
   <stop offset="1" style="stop-opacity:1; stop-color:#103667"/>
  </linearGradient>
  <linearGradient id="id1" gradientUnits="userSpaceOnUse" xlink:href="#id0" x1="1179.98" y1="1287.49" x2="913.63" y2="984.75">
  </linearGradient>
  <linearGradient id="id2" gradientUnits="userSpaceOnUse" xlink:href="#id0" x1="1179.98" y1="1285.57" x2="913.63" y2="1588.31">
  </linearGradient>
  <linearGradient id="id3" gradientUnits="userSpaceOnUse" x1="2079.23" y1="1497.68" x2="1911.14" y2="1107.37">
   <stop offset="0" style="stop-opacity:1; stop-color:#1D4386"/>
   <stop offset="0.305882" style="stop-opacity:1; stop-color:#5267BF"/>
   <stop offset="0.470588" style="stop-opacity:1; stop-color:#888CF8"/>
   <stop offset="0.635294" style="stop-opacity:1; stop-color:#B65AF8"/>
   <stop offset="1" style="stop-opacity:1; stop-color:#E527F8"/>
  </linearGradient>
  <linearGradient id="id4" gradientUnits="userSpaceOnUse" x1="676.28" y1="1036.75" x2="976.57" y2="1160.13">
   <stop offset="0" style="stop-opacity:1; stop-color:#65BCFF"/>
   <stop offset="0.305882" style="stop-opacity:1; stop-color:#76A4FC"/>
   <stop offset="0.470588" style="stop-opacity:1; stop-color:#888CF8"/>
   <stop offset="0.635294" style="stop-opacity:1; stop-color:#B65AF8"/>
   <stop offset="1" style="stop-opacity:1; stop-color:#E527F8"/>
  </linearGradient>
  <linearGradient id="id5" gradientUnits="userSpaceOnUse" xlink:href="#id4" x1="2053.23" y1="1311.03" x2="1932.92" y2="964.02">
  </linearGradient>
  <linearGradient id="id6" gradientUnits="userSpaceOnUse" xlink:href="#id4" x1="1146.86" y1="1158.06" x2="838.25" y2="1355.02">
  </linearGradient>
  <linearGradient id="id7" gradientUnits="userSpaceOnUse" xlink:href="#id4" x1="1146.86" y1="1415.01" x2="838.25" y2="1218.05">
  </linearGradient>
 </defs>
 <g id="Layer_x0020_1">
  <metadata id="CorelCorpID_0Corel-Layer"/>
  <g id="_105553127607424">
   <g>
    <path class="fil0" d="M646.63 1413.12c-10.73,-30.07 -16.05,-63.06 -16.05,-99.1 0,-36.03 5.32,-69.02 16.05,-99.09 10.73,-29.95 25.76,-55.96 45.07,-77.92 136.63,-154.55 420.22,13.87 165.17,13.87 -16.15,0 -28.1,16.77 -41.44,23.08 -13.25,6.42 -24.73,15.54 -34.34,27.59 -9.71,11.93 -25.28,40.41 -30.6,57.07 -5.41,16.67 -8.02,35.14 -8.02,55.4 0,20.27 2.61,38.74 8.02,55.41 5.32,16.66 12.79,30.96 22.49,42.9 9.61,12.05 21.09,21.17 34.34,27.59 13.35,6.3 28,9.57 44.14,9.57 18.57,0 35.56,-4.84 50.77,-14.3 15.3,-9.57 58.92,-51.77 71.43,-69.9 -9.88,144.14 -238.83,227.94 -327.03,47.83z"/>
    <path class="fil1" d="M634.35 1364.34c-10.81,-64.38 1.55,-119.34 12.28,-149.41 10.73,-29.95 25.76,-55.96 45.07,-77.92 19.41,-21.96 42.18,-38.96 68.5,-50.9 44.11,-20 148.46,-25.46 193.77,-7.48 65.02,25.8 39,83.97 -51.67,80.12 -118.72,-3.75 -239.63,94.37 -267.95,205.59z"/>
    <path class="fil2" d="M1247.15 1040.15c8.85,29.26 10.88,60.71 6.2,94.47 -4.68,33.75 -15.28,64.12 -31.94,91.18 -16.65,26.96 -37.89,49.79 -63.7,68.38 -182.48,130.8 -497.71,-56 -194.53,-29.89 19.19,1.65 35.57,-12.84 52.25,-17.38 16.59,-4.66 31.42,-12.03 44.41,-22.33 13.09,-10.19 35.29,-35.27 43.78,-50.34 8.6,-15.06 14.1,-32.09 16.74,-51.07 2.63,-18.99 1.92,-36.56 -2.35,-52.73 -4.16,-16.15 -11.17,-30.31 -21.16,-42.49 -9.86,-12.27 -22.32,-21.99 -37.24,-29.36 -15.04,-7.27 -32.03,-11.83 -51.22,-13.48 -22.08,-1.9 -42.89,0.9 -62.2,8.2 -19.44,7.4 -76.77,42.47 -93.99,58.17 30.46,-134.02 313.5,-189.08 394.95,-11.33z"/>
    <path class="fil3" d="M1255.41 1087.09c4.48,61.42 -17.34,111.65 -34,138.71 -16.65,26.96 -37.89,49.79 -63.7,68.38 -25.93,18.59 -55.2,32.18 -88.03,40.67 -55.04,14.23 -179.79,8.66 -231.31,-12.82 -73.94,-30.83 -35.46,-82.66 71.83,-69.76 140.63,15.66 297.1,-63.88 345.21,-165.18z"/>
    <path class="fil4" d="M1247.15 1532.92c8.85,-29.27 10.88,-60.72 6.2,-94.47 -4.68,-33.76 -15.28,-64.12 -31.94,-91.19 -16.65,-26.96 -37.89,-49.79 -63.7,-68.38 -182.48,-130.8 -497.71,56 -194.53,29.9 19.19,-1.65 35.57,12.84 52.25,17.38 16.59,4.65 31.42,12.02 44.41,22.33 13.09,10.18 35.29,35.26 43.78,50.33 8.6,15.06 14.1,32.09 16.74,51.08 2.63,18.99 1.92,36.55 -2.35,52.72 -4.16,16.15 -11.17,30.32 -21.16,42.49 -9.86,12.27 -22.32,21.99 -37.24,29.36 -15.04,7.27 -32.03,11.83 -51.22,13.48 -22.08,1.9 -42.89,-0.89 -62.2,-8.2 -19.44,-7.4 -76.77,-42.46 -93.99,-58.17 30.46,134.02 313.5,189.08 394.95,11.34z"/>
    <path class="fil5" d="M1255.41 1485.97c4.48,-61.42 -17.34,-111.64 -34,-138.71 -16.65,-26.96 -37.89,-49.79 -63.7,-68.38 -25.93,-18.58 -55.2,-32.18 -88.03,-40.67 -55.04,-14.23 -179.79,-8.66 -231.31,12.83 -73.94,30.82 -35.46,82.65 71.83,69.75 140.63,-15.65 297.1,63.89 345.21,165.18z"/>
   </g>
   <path class="fil6" d="M1425.13 1123.99c6.15,0 11.49,0.19 16,0.52 4.52,0.34 8.66,0.85 12.45,1.52 3.78,0.71 7.62,1.62 11.46,2.78l-4.11 24.98c-4.21,-0.19 -8.15,-0.31 -11.8,-0.37 -3.7,-0.03 -7.51,-0.12 -11.5,-0.18 -3.97,-0.09 -8.69,-0.12 -14.09,-0.12 -3.97,0 -7.29,0.45 -10,1.4 -2.72,0.91 -5,2.65 -6.93,5.21 -1.89,2.56 -3.47,6.32 -4.75,11.29 -1.28,4.97 -2.47,11.46 -3.51,19.54 -1.28,9.33 -1.83,16.5 -1.68,21.56 0.18,5.07 1.44,8.54 3.81,10.46 2.35,1.93 6.19,2.9 11.47,2.93 8.9,0 16.29,-0.15 22.11,-0.43 5.85,-0.27 11.62,-0.64 17.35,-1.15l1.34 25.28c-6.43,1.92 -12.84,3.32 -19.21,4.14 -6.37,0.86 -14.06,1.28 -23.02,1.28 -13.6,0 -24.31,-2.13 -32.11,-6.43 -7.81,-4.3 -12.96,-11.31 -15.5,-21.07 -2.53,-9.73 -2.65,-22.75 -0.36,-39.07 1.8,-12.53 4.18,-22.93 7.13,-31.22 2.96,-8.3 6.8,-14.83 11.56,-19.61 4.73,-4.79 10.68,-8.18 17.87,-10.22 7.2,-2.01 15.86,-3.02 26.02,-3.02zm259.39 2.2l-54.5 87.55 -32.69 -0.15 -30.1 -87.4 34.31 0 11.83 43.42c0.82,3.33 1.31,6.41 1.52,9.21 0.19,2.81 0.31,5.58 0.28,8.33l2.47 0c0.36,-2.53 1.1,-5.34 2.16,-8.45 1.07,-3.14 2.35,-6.1 3.78,-8.93l24.25 -43.58 36.69 0zm-51.3 67.55l-8.08 58.7 -34.52 0 8.26 -58.7 34.34 0zm205.69 -69.35c12.23,0 21.86,1.31 28.91,3.93 7.04,2.59 11.86,7.08 14.39,13.39 2.53,6.34 3.02,15.03 1.43,26.17 -1.46,10.82 -3.96,19.18 -7.5,25.06 -3.53,5.92 -8.6,9.97 -15.18,12.23 -6.59,2.26 -15.28,3.36 -26.05,3.36 -5.85,0 -11.65,-0.28 -17.32,-0.89 -5.7,-0.58 -10.98,-1.34 -15.89,-2.29 -4.88,-0.94 -9.02,-1.95 -12.47,-2.99 -3.48,-1.06 -5.82,-2.01 -7.1,-2.83l1.09 -15.8c7.87,0 16.04,0 24.49,0 8.45,0 16.56,0 24.4,0 3.96,0 7.07,-0.39 9.36,-1.22 2.29,-0.82 4.09,-2.56 5.34,-5.21 1.28,-2.65 2.25,-6.65 2.95,-11.99 0.61,-4.17 0.67,-7.41 0.19,-9.73 -0.46,-2.31 -1.65,-3.96 -3.51,-4.93 -1.89,-0.98 -4.67,-1.44 -8.36,-1.44 -12.01,0 -22.2,0.06 -30.61,0.24 -8.42,0.19 -14.09,0.43 -17.02,0.77l-0.58 -24.03c5.31,-0.58 10.25,-1.01 14.85,-1.25 4.58,-0.25 9.55,-0.4 14.88,-0.46 5.34,-0.06 11.77,-0.09 19.31,-0.09zm-14.82 1.8l-17.75 126.25 -34.22 0 17.75 -126.25 34.22 0zm210.35 0l-17.75 126.25 -34.4 0 17.75 -126.25 34.4 0zm31.9 46.72l-3.54 24.94 -39.86 0 3.42 -24.94 39.98 0zm38.94 -46.72l-17.75 126.25 -34.31 0 17.75 -126.25 34.31 0zm143.78 -0.61c7.17,0 14.4,0.06 21.71,0.15 7.29,0.09 14.37,0.27 21.2,0.55 6.86,0.27 13.08,0.79 18.69,1.52l-3.9 24.37 -45.35 0c-3.32,0 -5.73,0.64 -7.26,1.89 -1.52,1.22 -2.5,3.45 -2.92,6.59l-7.96 57.57c-0.43,2.75 -0.03,4.79 1.16,6.16 1.22,1.38 3.32,2.08 6.34,2.08l45.16 0 -0.64 24.64c-5.76,0.73 -12.01,1.22 -18.78,1.43 -6.77,0.21 -13.63,0.37 -20.62,0.43 -6.98,0.06 -13.63,0.09 -20,0.09 -10.13,0 -17.54,-3.02 -22.23,-9.03 -4.7,-6.04 -6.47,-13.78 -5.28,-23.3l9.61 -68.61c1.19,-8.14 4.42,-14.61 9.69,-19.37 5.31,-4.78 12.44,-7.16 21.38,-7.16zm-30.89 50.22l78.46 0 -2.89 23.18 -79.23 0 3.66 -23.18zm255.21 -51.41c11.04,0 20.25,1.19 27.63,3.6 7.35,2.37 12.65,6.4 15.89,12.1 3.23,5.71 4.18,13.57 2.83,23.58 -0.67,5.12 -1.98,9.75 -3.93,13.93 -1.95,4.21 -4.88,7.63 -8.78,10.28 -3.87,2.65 -9.12,4.33 -15.74,5.06l-0.18 1.22c2.13,0.31 4.3,1.16 6.56,2.5 2.22,1.34 4.23,3.39 5.97,6.13 1.74,2.75 2.87,6.5 3.39,11.26l5.49 38.39 -35.44 0 -4.24 -38.61c-0.3,-3.81 -1.07,-6.28 -2.35,-7.35 -1.28,-1.1 -3.47,-1.64 -6.55,-1.64 -9,-0.13 -16.38,-0.19 -22.14,-0.22 -5.77,0 -10.58,-0.06 -14.46,-0.18 -3.87,-0.09 -7.56,-0.24 -11.04,-0.43l2.72 -23.97 47.94 0c4.24,-0.03 7.56,-0.49 10,-1.4 2.44,-0.88 4.3,-2.56 5.58,-5.03 1.31,-2.44 2.29,-5.89 2.96,-10.34 0.58,-3.6 0.55,-6.43 -0.03,-8.51 -0.61,-2.07 -1.89,-3.51 -3.88,-4.33 -1.98,-0.82 -4.81,-1.22 -8.56,-1.22 -12.45,0 -22.88,0.06 -31.26,0.24 -8.39,0.19 -14.06,0.4 -16.99,0.68l-0.58 -23.94c5.31,-0.58 10.28,-1.01 14.98,-1.25 4.66,-0.25 9.72,-0.4 15.12,-0.46 5.4,-0.06 11.77,-0.09 19.09,-0.09zm-15.61 1.8l-17.75 126.25 -33.58 0 17.75 -126.25 33.58 0z"/>
   <path class="fil7" d="M1370.12 1387.93l0 -94.1 44.07 0c11.27,0 19.87,2.22 25.79,6.63 5.89,4.42 8.85,10.38 8.85,17.86 0,4.97 -1.17,9.25 -3.5,12.81 -2.33,3.57 -5.44,6.3 -9.32,8.23 -3.89,1.9 -8.13,2.86 -12.77,2.86l2.47 -4.79c5.31,0 10.08,0.94 14.27,2.84 4.21,1.93 7.53,4.73 9.97,8.43 2.44,3.69 3.67,8.24 3.67,13.64 0,8.07 -3.09,14.36 -9.27,18.84 -6.19,4.51 -15.35,6.75 -27.47,6.75l-46.76 0zm17.37 -13.76l28.34 0c6.54,0 11.54,-1.07 15.01,-3.23 3.45,-2.15 5.2,-5.57 5.2,-10.26 0,-4.68 -1.75,-8.11 -5.2,-10.3 -3.47,-2.2 -8.47,-3.27 -15.01,-3.27l-29.66 0 0 -13.6 26.05 0c6.09,0 10.78,-1.08 14.07,-3.23 3.29,-2.15 4.95,-5.4 4.95,-9.74 0,-4.35 -1.66,-7.6 -4.95,-9.75 -3.29,-2.13 -7.98,-3.2 -14.07,-3.2l-24.73 0 0 66.58zm110.02 13.76l0 -94.1 17.43 0 0 79.33 49.16 0 0 14.77 -66.59 0zm147.89 1.32c-7.3,0 -14.05,-1.21 -20.25,-3.63 -6.21,-2.42 -11.59,-5.8 -16.13,-10.15 -4.55,-4.37 -8.09,-9.48 -10.62,-15.35 -2.53,-5.87 -3.79,-12.27 -3.79,-19.24 0,-6.97 1.26,-13.4 3.79,-19.25 2.53,-5.87 6.07,-10.97 10.64,-15.34 4.57,-4.37 9.92,-7.78 16.11,-10.17 6.16,-2.42 12.9,-3.61 20.2,-3.61 7.33,0 14.05,1.19 20.21,3.58 6.14,2.4 11.5,5.76 16.04,10.11 4.55,4.34 8.09,9.47 10.6,15.34 2.53,5.9 3.81,12.35 3.81,19.34 0,7.01 -1.28,13.44 -3.81,19.33 -2.51,5.9 -6.05,11 -10.6,15.35 -4.54,4.35 -9.9,7.71 -16.04,10.1 -6.16,2.4 -12.88,3.59 -20.16,3.59zm-0.05 -15.26c4.75,0 9.15,-0.8 13.16,-2.44 3.98,-1.64 7.48,-3.94 10.46,-6.92 2.96,-2.98 5.29,-6.48 6.94,-10.51 1.66,-4.03 2.49,-8.45 2.49,-13.29 0,-4.81 -0.83,-9.23 -2.46,-13.21 -1.66,-4.01 -3.97,-7.49 -6.95,-10.49 -2.98,-2.98 -6.47,-5.29 -10.48,-6.92 -4.01,-1.64 -8.41,-2.44 -13.16,-2.44 -4.74,0 -9.13,0.8 -13.15,2.44 -4.03,1.63 -7.55,3.96 -10.53,6.94 -3,3.01 -5.33,6.5 -6.99,10.49 -1.65,4.01 -2.48,8.4 -2.48,13.19 0,4.8 0.83,9.21 2.48,13.24 1.66,4.04 3.99,7.55 6.97,10.56 2.98,3 6.5,5.31 10.53,6.94 4.04,1.62 8.43,2.42 13.17,2.42zm137.86 15.26c-7.22,0 -13.89,-1.19 -20.03,-3.56 -6.14,-2.38 -11.45,-5.74 -15.98,-10.08 -4.5,-4.35 -8.02,-9.48 -10.53,-15.35 -2.53,-5.89 -3.78,-12.35 -3.78,-19.38 0,-7.04 1.25,-13.49 3.78,-19.38 2.51,-5.87 6.05,-11 10.6,-15.35 4.55,-4.34 9.88,-7.7 16.02,-10.08 6.14,-2.37 12.81,-3.56 20.03,-3.56 7.66,0 14.7,1.3 21.08,3.94 6.39,2.65 11.74,6.54 16.09,11.72l-11.25 10.73c-3.41,-3.74 -7.21,-6.52 -11.43,-8.38 -4.21,-1.83 -8.78,-2.75 -13.71,-2.75 -4.86,0 -9.34,0.8 -13.44,2.42 -4.1,1.63 -7.66,3.92 -10.66,6.87 -3.03,2.96 -5.36,6.46 -7.04,10.51 -1.66,4.03 -2.49,8.47 -2.49,13.31 0,4.84 0.83,9.27 2.49,13.31 1.68,4.05 4.01,7.55 7.04,10.5 3,2.96 6.56,5.25 10.66,6.88 4.1,1.62 8.58,2.42 13.44,2.42 4.93,0 9.5,-0.92 13.71,-2.75 4.22,-1.86 8.02,-4.69 11.43,-8.49l11.25 10.73c-4.35,5.15 -9.7,9.07 -16.09,11.76 -6.38,2.67 -13.44,4.01 -21.19,4.01zm94.88 -23.48l-0.92 -20.77 49.29 -51.17 19.69 0 -40.98 43.6 -9.76 10.62 -17.32 17.72zm-15.48 22.16l0 -94.1 17.36 0 0 94.1 -17.36 0zm65.57 0l-36.11 -42.88 11.54 -12.77 45.01 55.65 -20.44 0zm97.73 1.32c-7.21,0 -13.89,-1.19 -20.03,-3.56 -6.14,-2.38 -11.45,-5.74 -15.97,-10.08 -4.51,-4.35 -8.02,-9.48 -10.53,-15.35 -2.53,-5.89 -3.79,-12.35 -3.79,-19.38 0,-7.04 1.26,-13.49 3.79,-19.38 2.51,-5.87 6.05,-11 10.59,-15.35 4.55,-4.34 9.88,-7.7 16.02,-10.08 6.14,-2.37 12.82,-3.56 20.03,-3.56 7.66,0 14.7,1.3 21.08,3.94 6.39,2.65 11.74,6.54 16.09,11.72l-11.25 10.73c-3.4,-3.74 -7.21,-6.52 -11.42,-8.38 -4.21,-1.83 -8.79,-2.75 -13.71,-2.75 -4.87,0 -9.35,0.8 -13.45,2.42 -4.1,1.63 -7.66,3.92 -10.66,6.87 -3.03,2.96 -5.36,6.46 -7.04,10.51 -1.65,4.03 -2.48,8.47 -2.48,13.31 0,4.84 0.83,9.27 2.48,13.31 1.68,4.05 4.01,7.55 7.04,10.5 3,2.96 6.56,5.25 10.66,6.88 4.1,1.62 8.58,2.42 13.45,2.42 4.92,0 9.5,-0.92 13.71,-2.75 4.21,-1.86 8.02,-4.69 11.42,-8.49l11.25 10.73c-4.35,5.15 -9.7,9.07 -16.09,11.76 -6.38,2.67 -13.44,4.01 -21.19,4.01zm145.45 -95.42l17.45 0 0 94.1 -17.45 0 0 -94.1zm-48.62 94.1l-17.43 0 0 -94.1 17.43 0 0 94.1zm49.96 -40.31l-51.4 0 0 -14.94 51.4 0 0 14.94zm53.25 40.31l42.3 -94.1 17.25 0 42.44 94.1 -18.31 0 -36.34 -84.78 6.99 0 -36.36 84.78 -17.97 0zm19.54 -21.78l4.68 -13.73 50.77 0 4.8 13.73 -60.25 0zm119.57 21.78l0 -94.1 17.43 0 0 94.1 -17.43 0zm67.95 0l0 -94.1 14.37 0 58.98 72.48 -7.19 0 0 -72.48 17.34 0 0 94.1 -14.38 0 -58.97 -72.48 7.19 0 0 72.48 -17.34 0z"/>
  </g>
 </g>
</svg>
